<mxfile host="app.diagrams.net" agent="Mozilla/5.0 (Windows NT 10.0; Win64; x64) AppleWebKit/537.36 (KHTML, like Gecko) Chrome/131.0.0.0 Safari/537.36" version="25.0.1">
  <diagram name="Page-1" id="gAMLvYZRl7LFB1CfRkrg">
    <mxGraphModel dx="880" dy="476" grid="0" gridSize="10" guides="1" tooltips="1" connect="1" arrows="1" fold="1" page="1" pageScale="1" pageWidth="850" pageHeight="1100" math="0" shadow="0">
      <root>
        <mxCell id="0" />
        <mxCell id="1" parent="0" />
        <mxCell id="2x22vtBfhgaSho9c-z1l-9" value="Passenger" style="ellipse;aspect=fixed;strokeWidth=2;whiteSpace=wrap;" vertex="1" parent="1">
          <mxGeometry x="447" y="35" width="86" height="86" as="geometry" />
        </mxCell>
        <mxCell id="2x22vtBfhgaSho9c-z1l-10" value="Driver" style="ellipse;aspect=fixed;strokeWidth=2;whiteSpace=wrap;" vertex="1" parent="1">
          <mxGeometry x="1442" y="48" width="59" height="59" as="geometry" />
        </mxCell>
        <mxCell id="2x22vtBfhgaSho9c-z1l-11" value="Administrator" style="ellipse;aspect=fixed;strokeWidth=2;whiteSpace=wrap;" vertex="1" parent="1">
          <mxGeometry x="3117" y="20" width="115" height="115" as="geometry" />
        </mxCell>
        <mxCell id="2x22vtBfhgaSho9c-z1l-12" value="Payment System" style="ellipse;aspect=fixed;strokeWidth=2;whiteSpace=wrap;" vertex="1" parent="1">
          <mxGeometry x="20" y="185" width="132" height="132" as="geometry" />
        </mxCell>
        <mxCell id="2x22vtBfhgaSho9c-z1l-13" value="Register Account" style="whiteSpace=wrap;strokeWidth=2;" vertex="1" parent="1">
          <mxGeometry x="425" y="226" width="180" height="49" as="geometry" />
        </mxCell>
        <mxCell id="2x22vtBfhgaSho9c-z1l-14" value="Login" style="whiteSpace=wrap;strokeWidth=2;" vertex="1" parent="1">
          <mxGeometry x="1105" y="226" width="98" height="49" as="geometry" />
        </mxCell>
        <mxCell id="2x22vtBfhgaSho9c-z1l-15" value="Request Ride" style="whiteSpace=wrap;strokeWidth=2;" vertex="1" parent="1">
          <mxGeometry x="202" y="226" width="153" height="49" as="geometry" />
        </mxCell>
        <mxCell id="2x22vtBfhgaSho9c-z1l-16" value="Track Ride" style="whiteSpace=wrap;strokeWidth=2;" vertex="1" parent="1">
          <mxGeometry x="266" y="367" width="136" height="49" as="geometry" />
        </mxCell>
        <mxCell id="2x22vtBfhgaSho9c-z1l-17" value="Make Payment" style="whiteSpace=wrap;strokeWidth=2;" vertex="1" parent="1">
          <mxGeometry x="558" y="367" width="165" height="49" as="geometry" />
        </mxCell>
        <mxCell id="2x22vtBfhgaSho9c-z1l-18" value="Rate Driver" style="whiteSpace=wrap;strokeWidth=2;" vertex="1" parent="1">
          <mxGeometry x="675" y="226" width="142" height="49" as="geometry" />
        </mxCell>
        <mxCell id="2x22vtBfhgaSho9c-z1l-19" value="View Ride History" style="whiteSpace=wrap;strokeWidth=2;" vertex="1" parent="1">
          <mxGeometry x="867" y="226" width="188" height="49" as="geometry" />
        </mxCell>
        <mxCell id="2x22vtBfhgaSho9c-z1l-20" value="Accept/Decline Ride" style="whiteSpace=wrap;strokeWidth=2;" vertex="1" parent="1">
          <mxGeometry x="1253" y="226" width="208" height="49" as="geometry" />
        </mxCell>
        <mxCell id="2x22vtBfhgaSho9c-z1l-21" value="Update Availability" style="whiteSpace=wrap;strokeWidth=2;" vertex="1" parent="1">
          <mxGeometry x="1512" y="226" width="196" height="49" as="geometry" />
        </mxCell>
        <mxCell id="2x22vtBfhgaSho9c-z1l-22" value="Navigate to Passenger" style="whiteSpace=wrap;strokeWidth=2;" vertex="1" parent="1">
          <mxGeometry x="1758" y="226" width="218" height="49" as="geometry" />
        </mxCell>
        <mxCell id="2x22vtBfhgaSho9c-z1l-23" value="Complete Ride" style="whiteSpace=wrap;strokeWidth=2;" vertex="1" parent="1">
          <mxGeometry x="2026" y="226" width="165" height="49" as="geometry" />
        </mxCell>
        <mxCell id="2x22vtBfhgaSho9c-z1l-24" value="View Earnings" style="whiteSpace=wrap;strokeWidth=2;" vertex="1" parent="1">
          <mxGeometry x="2241" y="226" width="160" height="49" as="geometry" />
        </mxCell>
        <mxCell id="2x22vtBfhgaSho9c-z1l-25" value="Rate Passenger" style="whiteSpace=wrap;strokeWidth=2;" vertex="1" parent="1">
          <mxGeometry x="2452" y="226" width="168" height="49" as="geometry" />
        </mxCell>
        <mxCell id="2x22vtBfhgaSho9c-z1l-26" value="Monitor Rides" style="whiteSpace=wrap;strokeWidth=2;" vertex="1" parent="1">
          <mxGeometry x="2670" y="226" width="159" height="49" as="geometry" />
        </mxCell>
        <mxCell id="2x22vtBfhgaSho9c-z1l-27" value="Handle Disputes" style="whiteSpace=wrap;strokeWidth=2;" vertex="1" parent="1">
          <mxGeometry x="2879" y="226" width="175" height="49" as="geometry" />
        </mxCell>
        <mxCell id="2x22vtBfhgaSho9c-z1l-28" value="Verify Drivers" style="whiteSpace=wrap;strokeWidth=2;" vertex="1" parent="1">
          <mxGeometry x="3104" y="226" width="158" height="49" as="geometry" />
        </mxCell>
        <mxCell id="2x22vtBfhgaSho9c-z1l-29" value="Generate Reports" style="whiteSpace=wrap;strokeWidth=2;" vertex="1" parent="1">
          <mxGeometry x="3312" y="226" width="186" height="49" as="geometry" />
        </mxCell>
        <mxCell id="2x22vtBfhgaSho9c-z1l-30" value="Set Pricing" style="whiteSpace=wrap;strokeWidth=2;" vertex="1" parent="1">
          <mxGeometry x="3548" y="226" width="136" height="49" as="geometry" />
        </mxCell>
        <mxCell id="2x22vtBfhgaSho9c-z1l-31" value="" style="curved=1;startArrow=none;endArrow=block;exitX=0;exitY=0.66;entryX=0.09;entryY=0.01;rounded=0;fontSize=12;startSize=8;endSize=8;" edge="1" parent="1" source="2x22vtBfhgaSho9c-z1l-9" target="2x22vtBfhgaSho9c-z1l-13">
          <mxGeometry relative="1" as="geometry">
            <Array as="points">
              <mxPoint x="238" y="160" />
            </Array>
          </mxGeometry>
        </mxCell>
        <mxCell id="2x22vtBfhgaSho9c-z1l-32" value="" style="curved=1;startArrow=none;endArrow=block;exitX=0;exitY=0.67;entryX=0;entryY=0.4;rounded=0;fontSize=12;startSize=8;endSize=8;" edge="1" parent="1" source="2x22vtBfhgaSho9c-z1l-9" target="2x22vtBfhgaSho9c-z1l-14">
          <mxGeometry relative="1" as="geometry">
            <Array as="points">
              <mxPoint x="258" y="160" />
            </Array>
          </mxGeometry>
        </mxCell>
        <mxCell id="2x22vtBfhgaSho9c-z1l-33" value="" style="curved=1;startArrow=none;endArrow=block;exitX=0;exitY=0.69;entryX=0.5;entryY=0.01;rounded=0;fontSize=12;startSize=8;endSize=8;" edge="1" parent="1" source="2x22vtBfhgaSho9c-z1l-9" target="2x22vtBfhgaSho9c-z1l-15">
          <mxGeometry relative="1" as="geometry">
            <Array as="points">
              <mxPoint x="278" y="160" />
            </Array>
          </mxGeometry>
        </mxCell>
        <mxCell id="2x22vtBfhgaSho9c-z1l-34" value="" style="curved=1;startArrow=none;endArrow=block;exitX=0;exitY=0.9;entryX=0.7;entryY=-0.01;rounded=0;fontSize=12;startSize=8;endSize=8;" edge="1" parent="1" source="2x22vtBfhgaSho9c-z1l-9" target="2x22vtBfhgaSho9c-z1l-16">
          <mxGeometry relative="1" as="geometry">
            <Array as="points">
              <mxPoint x="390" y="160" />
              <mxPoint x="390" y="342" />
            </Array>
          </mxGeometry>
        </mxCell>
        <mxCell id="2x22vtBfhgaSho9c-z1l-35" value="" style="curved=1;startArrow=none;endArrow=block;exitX=1;exitY=0.77;entryX=0.5;entryY=-0.01;rounded=0;fontSize=12;startSize=8;endSize=8;" edge="1" parent="1" source="2x22vtBfhgaSho9c-z1l-9" target="2x22vtBfhgaSho9c-z1l-17">
          <mxGeometry relative="1" as="geometry">
            <Array as="points">
              <mxPoint x="640" y="160" />
            </Array>
          </mxGeometry>
        </mxCell>
        <mxCell id="2x22vtBfhgaSho9c-z1l-36" value="" style="curved=1;startArrow=none;endArrow=block;exitX=1;exitY=0.65;entryX=0.5;entryY=0.01;rounded=0;fontSize=12;startSize=8;endSize=8;" edge="1" parent="1" source="2x22vtBfhgaSho9c-z1l-9" target="2x22vtBfhgaSho9c-z1l-18">
          <mxGeometry relative="1" as="geometry">
            <Array as="points">
              <mxPoint x="746" y="160" />
            </Array>
          </mxGeometry>
        </mxCell>
        <mxCell id="2x22vtBfhgaSho9c-z1l-37" value="" style="curved=1;startArrow=none;endArrow=block;exitX=1;exitY=0.58;entryX=0.5;entryY=0.01;rounded=0;fontSize=12;startSize=8;endSize=8;" edge="1" parent="1" source="2x22vtBfhgaSho9c-z1l-9" target="2x22vtBfhgaSho9c-z1l-19">
          <mxGeometry relative="1" as="geometry">
            <Array as="points">
              <mxPoint x="961" y="160" />
            </Array>
          </mxGeometry>
        </mxCell>
        <mxCell id="2x22vtBfhgaSho9c-z1l-38" value="" style="curved=1;startArrow=none;endArrow=block;exitX=0.01;exitY=0.6;entryX=1;entryY=0.2;rounded=0;fontSize=12;startSize=8;endSize=8;" edge="1" parent="1" source="2x22vtBfhgaSho9c-z1l-10" target="2x22vtBfhgaSho9c-z1l-13">
          <mxGeometry relative="1" as="geometry">
            <Array as="points">
              <mxPoint x="1057" y="160" />
            </Array>
          </mxGeometry>
        </mxCell>
        <mxCell id="2x22vtBfhgaSho9c-z1l-39" value="" style="curved=1;startArrow=none;endArrow=block;exitX=0.01;exitY=0.63;entryX=0.5;entryY=0.01;rounded=0;fontSize=12;startSize=8;endSize=8;" edge="1" parent="1" source="2x22vtBfhgaSho9c-z1l-10" target="2x22vtBfhgaSho9c-z1l-14">
          <mxGeometry relative="1" as="geometry">
            <Array as="points">
              <mxPoint x="1154" y="160" />
            </Array>
          </mxGeometry>
        </mxCell>
        <mxCell id="2x22vtBfhgaSho9c-z1l-40" value="" style="curved=1;startArrow=none;endArrow=block;exitX=0.01;exitY=0.86;entryX=0.5;entryY=0.01;rounded=0;fontSize=12;startSize=8;endSize=8;" edge="1" parent="1" source="2x22vtBfhgaSho9c-z1l-10" target="2x22vtBfhgaSho9c-z1l-20">
          <mxGeometry relative="1" as="geometry">
            <Array as="points">
              <mxPoint x="1357" y="160" />
            </Array>
          </mxGeometry>
        </mxCell>
        <mxCell id="2x22vtBfhgaSho9c-z1l-41" value="" style="curved=1;startArrow=none;endArrow=block;exitX=1.01;exitY=0.8;entryX=0.5;entryY=0.01;rounded=0;fontSize=12;startSize=8;endSize=8;" edge="1" parent="1" source="2x22vtBfhgaSho9c-z1l-10" target="2x22vtBfhgaSho9c-z1l-21">
          <mxGeometry relative="1" as="geometry">
            <Array as="points">
              <mxPoint x="1610" y="160" />
            </Array>
          </mxGeometry>
        </mxCell>
        <mxCell id="2x22vtBfhgaSho9c-z1l-42" value="" style="curved=1;startArrow=none;endArrow=block;exitX=1.01;exitY=0.6;entryX=0.5;entryY=0.01;rounded=0;fontSize=12;startSize=8;endSize=8;" edge="1" parent="1" source="2x22vtBfhgaSho9c-z1l-10" target="2x22vtBfhgaSho9c-z1l-22">
          <mxGeometry relative="1" as="geometry">
            <Array as="points">
              <mxPoint x="1867" y="160" />
            </Array>
          </mxGeometry>
        </mxCell>
        <mxCell id="2x22vtBfhgaSho9c-z1l-43" value="" style="curved=1;startArrow=none;endArrow=block;exitX=1.01;exitY=0.56;entryX=0.5;entryY=0.01;rounded=0;fontSize=12;startSize=8;endSize=8;" edge="1" parent="1" source="2x22vtBfhgaSho9c-z1l-10" target="2x22vtBfhgaSho9c-z1l-23">
          <mxGeometry relative="1" as="geometry">
            <Array as="points">
              <mxPoint x="2109" y="160" />
            </Array>
          </mxGeometry>
        </mxCell>
        <mxCell id="2x22vtBfhgaSho9c-z1l-44" value="" style="curved=1;startArrow=none;endArrow=block;exitX=1.01;exitY=0.55;entryX=0.5;entryY=0.01;rounded=0;fontSize=12;startSize=8;endSize=8;" edge="1" parent="1" source="2x22vtBfhgaSho9c-z1l-10" target="2x22vtBfhgaSho9c-z1l-24">
          <mxGeometry relative="1" as="geometry">
            <Array as="points">
              <mxPoint x="2321" y="160" />
            </Array>
          </mxGeometry>
        </mxCell>
        <mxCell id="2x22vtBfhgaSho9c-z1l-45" value="" style="curved=1;startArrow=none;endArrow=block;exitX=1.01;exitY=0.54;entryX=0.5;entryY=0.01;rounded=0;fontSize=12;startSize=8;endSize=8;" edge="1" parent="1" source="2x22vtBfhgaSho9c-z1l-10" target="2x22vtBfhgaSho9c-z1l-25">
          <mxGeometry relative="1" as="geometry">
            <Array as="points">
              <mxPoint x="2536" y="160" />
            </Array>
          </mxGeometry>
        </mxCell>
        <mxCell id="2x22vtBfhgaSho9c-z1l-46" value="" style="curved=1;startArrow=none;endArrow=block;exitX=0;exitY=0.58;entryX=1;entryY=0.44;rounded=0;fontSize=12;startSize=8;endSize=8;" edge="1" parent="1" source="2x22vtBfhgaSho9c-z1l-11" target="2x22vtBfhgaSho9c-z1l-14">
          <mxGeometry relative="1" as="geometry">
            <Array as="points">
              <mxPoint x="2643" y="160" />
            </Array>
          </mxGeometry>
        </mxCell>
        <mxCell id="2x22vtBfhgaSho9c-z1l-47" value="" style="curved=1;startArrow=none;endArrow=block;exitX=0;exitY=0.6;entryX=0.5;entryY=0.01;rounded=0;fontSize=12;startSize=8;endSize=8;" edge="1" parent="1" source="2x22vtBfhgaSho9c-z1l-11" target="2x22vtBfhgaSho9c-z1l-26">
          <mxGeometry relative="1" as="geometry">
            <Array as="points">
              <mxPoint x="2749" y="160" />
            </Array>
          </mxGeometry>
        </mxCell>
        <mxCell id="2x22vtBfhgaSho9c-z1l-48" value="" style="curved=1;startArrow=none;endArrow=block;exitX=0;exitY=0.7;entryX=0.5;entryY=0.01;rounded=0;fontSize=12;startSize=8;endSize=8;" edge="1" parent="1" source="2x22vtBfhgaSho9c-z1l-11" target="2x22vtBfhgaSho9c-z1l-27">
          <mxGeometry relative="1" as="geometry">
            <Array as="points">
              <mxPoint x="2966" y="160" />
            </Array>
          </mxGeometry>
        </mxCell>
        <mxCell id="2x22vtBfhgaSho9c-z1l-49" value="" style="curved=1;startArrow=none;endArrow=block;exitX=0.55;exitY=1;entryX=0.5;entryY=0.01;rounded=0;fontSize=12;startSize=8;endSize=8;" edge="1" parent="1" source="2x22vtBfhgaSho9c-z1l-11" target="2x22vtBfhgaSho9c-z1l-28">
          <mxGeometry relative="1" as="geometry">
            <Array as="points">
              <mxPoint x="3183" y="160" />
            </Array>
          </mxGeometry>
        </mxCell>
        <mxCell id="2x22vtBfhgaSho9c-z1l-50" value="" style="curved=1;startArrow=none;endArrow=block;exitX=1;exitY=0.68;entryX=0.5;entryY=0.01;rounded=0;fontSize=12;startSize=8;endSize=8;" edge="1" parent="1" source="2x22vtBfhgaSho9c-z1l-11" target="2x22vtBfhgaSho9c-z1l-29">
          <mxGeometry relative="1" as="geometry">
            <Array as="points">
              <mxPoint x="3405" y="160" />
            </Array>
          </mxGeometry>
        </mxCell>
        <mxCell id="2x22vtBfhgaSho9c-z1l-51" value="" style="curved=1;startArrow=none;endArrow=block;exitX=1;exitY=0.59;entryX=0.5;entryY=0.01;rounded=0;fontSize=12;startSize=8;endSize=8;" edge="1" parent="1" source="2x22vtBfhgaSho9c-z1l-11" target="2x22vtBfhgaSho9c-z1l-30">
          <mxGeometry relative="1" as="geometry">
            <Array as="points">
              <mxPoint x="3616" y="160" />
            </Array>
          </mxGeometry>
        </mxCell>
        <mxCell id="2x22vtBfhgaSho9c-z1l-52" value="" style="curved=1;startArrow=none;endArrow=block;exitX=0.5;exitY=1;entryX=0;entryY=0.34;rounded=0;fontSize=12;startSize=8;endSize=8;" edge="1" parent="1" source="2x22vtBfhgaSho9c-z1l-12" target="2x22vtBfhgaSho9c-z1l-17">
          <mxGeometry relative="1" as="geometry">
            <Array as="points">
              <mxPoint x="86" y="342" />
            </Array>
          </mxGeometry>
        </mxCell>
        <mxCell id="2x22vtBfhgaSho9c-z1l-53" value="" style="curved=1;startArrow=none;endArrow=block;exitX=0.5;exitY=1.01;entryX=1;entryY=0.44;rounded=0;fontSize=12;startSize=8;endSize=8;" edge="1" parent="1" source="2x22vtBfhgaSho9c-z1l-23" target="2x22vtBfhgaSho9c-z1l-17">
          <mxGeometry relative="1" as="geometry">
            <Array as="points">
              <mxPoint x="2109" y="342" />
            </Array>
          </mxGeometry>
        </mxCell>
        <mxCell id="2x22vtBfhgaSho9c-z1l-54" value="" style="curved=1;startArrow=none;endArrow=block;exitX=0.5;exitY=1.01;entryX=0.3;entryY=-0.01;rounded=0;fontSize=12;startSize=8;endSize=8;" edge="1" parent="1" source="2x22vtBfhgaSho9c-z1l-15" target="2x22vtBfhgaSho9c-z1l-16">
          <mxGeometry relative="1" as="geometry">
            <Array as="points">
              <mxPoint x="278" y="342" />
            </Array>
          </mxGeometry>
        </mxCell>
      </root>
    </mxGraphModel>
  </diagram>
</mxfile>
